<svg width="45" height="35" viewBox="0 0 45 35" fill="none" xmlns="http://www.w3.org/2000/svg">
<g id="group_add_fil">
<ellipse id="Ellipse 46" cx="13.4451" cy="13.125" rx="5.97561" ry="5.83333" fill="#FFFFFF"/>
<path id="Subtract" fill-rule="evenodd" clip-rule="evenodd" d="M22.5753 26.6224C22.7326 27.2039 23.2085 27.7084 23.8109 27.7084H24.6928C25.8584 27.7084 26.7357 26.6751 26.2715 25.6059C25.5458 23.9344 24.0213 21.875 20.9146 21.875C20.6432 21.875 20.3839 21.8907 20.1361 21.9205C19.9872 21.9385 19.9352 22.1231 20.044 22.2263C21.5138 23.6217 22.225 25.328 22.5753 26.6224ZM20.6061 27.1553C20.6887 27.4608 20.4141 27.7084 20.0977 27.7084H17.2569C16.0273 27.7084 15.1008 26.6171 15.6062 25.4963C15.8492 24.9574 16.1754 24.3844 16.6104 23.857C17.138 23.2172 18.0871 23.1707 18.6829 23.7474C19.7607 24.7908 20.3179 26.0903 20.6061 27.1553Z" fill="#FFFFFF"/>
<path id="Rectangle 4160" d="M13.4451 21.875C18.3327 21.875 20.0221 24.997 20.6061 27.1553C20.9004 28.2428 20.0013 29.1667 18.8746 29.1667H8.01562C6.88896 29.1667 5.98986 28.2428 6.28413 27.1553C6.86812 24.997 8.55758 21.875 13.4451 21.875Z" fill="#FFFFFF"/>
<path id="Subtract_2" fill-rule="evenodd" clip-rule="evenodd" d="M19.1852 18.6207C20.5891 17.2089 21.4607 15.2767 21.4607 13.125C21.4607 12.091 21.2594 11.1076 20.8945 10.2084C20.9012 10.2084 20.9079 10.2083 20.9146 10.2083C23.3898 10.2083 25.3963 12.1671 25.3963 14.5833C25.3963 16.9996 23.3898 18.9583 20.9146 18.9583C20.3016 18.9583 19.7174 18.8382 19.1852 18.6207ZM17.4964 17.413C18.6797 16.3472 19.4207 14.8206 19.4207 13.125C19.4207 12.2545 19.2254 11.4285 18.8752 10.6865C17.4253 11.4111 16.4329 12.8841 16.4329 14.5833C16.4329 15.6624 16.8331 16.6502 17.4964 17.413Z" fill="#FFFFFF"/>
<path id="Vector 571" d="M38.76 6.12V14.28" stroke="#FFFFFF" stroke-width="4.08" stroke-linecap="round"/>
<path id="Vector 572" d="M42.84 10.2L34.68 10.2" stroke="#FFFFFF" stroke-width="4.08" stroke-linecap="round"/>
</g>
</svg>
