<svg width="32" height="32" viewBox="0 0 32 32" fill="none" xmlns="http://www.w3.org/2000/svg">
<g id="Basket_alt_3_fill">
<path id="Vector" d="M5.33331 5.33334H7.77176C8.52171 5.33334 8.89669 5.33334 9.16795 5.54514C9.43921 5.75693 9.53015 6.12071 9.71204 6.84827L10.0199 8.07963C10.2758 9.10349 10.4038 9.61542 10.7169 9.97658C10.8866 10.1724 11.0928 10.3334 11.324 10.4506C11.7503 10.6667 12.2779 10.6667 13.3333 10.6667V10.6667" stroke="#FFFFFF" stroke-width="2" stroke-linecap="round"/>
<path id="Rectangle 41" d="M24 22.6667H10.0679C9.45671 22.6667 9.15112 22.6667 8.93982 22.5609C8.64666 22.4141 8.44405 22.133 8.39754 21.8085C8.36402 21.5746 8.46065 21.2847 8.65392 20.7049V20.7049C8.86804 20.0625 8.97511 19.7413 9.15649 19.4915C9.40793 19.1453 9.76379 18.8888 10.1718 18.7597C10.4661 18.6667 10.8047 18.6667 11.4818 18.6667H18.6667" stroke="#FFFFFF" stroke-width="2" stroke-linecap="round" stroke-linejoin="round"/>
<path id="Vector 339" d="M21.4306 18.6667H12.3609C11.3832 18.6667 10.5488 17.9598 10.3881 16.9955L9.62441 12.4133C9.47203 11.499 10.1771 10.6667 11.104 10.6667H25.0486C25.792 10.6667 26.2755 11.449 25.943 12.1139L23.2194 17.5611C22.8806 18.2387 22.1881 18.6667 21.4306 18.6667Z" fill="#FFFFFF" stroke="#FFFFFF" stroke-width="2" stroke-linecap="round"/>
<circle id="Ellipse 167" cx="22.6666" cy="26.6667" r="1.33333" fill="#FFFFFF"/>
<circle id="Ellipse 168" cx="12" cy="26.6667" r="1.33333" fill="#FFFFFF"/>
</g>
</svg>
