<svg width="42" height="37" viewBox="0 0 42 37" fill="none" xmlns="http://www.w3.org/2000/svg">
<g id="Basket_alt_3_fill">
<path id="Vector" d="M7 6.16666H10.7386C11.466 6.16666 11.8297 6.16666 12.0972 6.36885C12.3648 6.57104 12.464 6.92091 12.6626 7.62065L13.1748 9.42534C13.5719 10.8248 13.7705 11.5246 14.3056 11.9289C14.8407 12.3333 15.5681 12.3333 17.0228 12.3333H17.5" stroke="#DF20A3" stroke-width="2" stroke-linecap="round"/>
<path id="Rectangle 41" d="M31.5 26.2083H13.0301C12.0565 26.2083 11.5697 26.2083 11.2862 25.9584C11.1638 25.8505 11.0696 25.7142 11.012 25.5615C10.8785 25.2079 11.0508 24.7526 11.3954 23.8419V23.8419C11.7477 22.9109 11.9238 22.4454 12.2582 22.1295C12.4062 21.9897 12.5747 21.8732 12.7579 21.7843C13.1717 21.5833 13.6694 21.5833 14.6649 21.5833H24.5" stroke="#DF20A3" stroke-width="2" stroke-linecap="round" stroke-linejoin="round"/>
<path id="Vector 339" d="M28.5855 21.5833H15.6571C14.6959 21.5833 13.8706 20.8996 13.692 19.9551L12.5865 14.1122C12.4118 13.1884 13.1202 12.3333 14.0604 12.3333H33.2826C34.0491 12.3333 34.5306 13.1603 34.1523 13.8269L30.3248 20.5706C29.9695 21.1966 29.3053 21.5833 28.5855 21.5833Z" fill="#DF20A3" stroke="#DF20A3" stroke-width="2" stroke-linecap="round"/>
<ellipse id="Ellipse 167" cx="29.75" cy="30.8333" rx="1.75" ry="1.54167" fill="#DF20A3"/>
<ellipse id="Ellipse 168" cx="15.75" cy="30.8333" rx="1.75" ry="1.54167" fill="#DF20A3"/>
</g>
</svg>
