<svg width="81" height="78" viewBox="0 0 81 78" fill="none" xmlns="http://www.w3.org/2000/svg">
<path d="M40.5 0.885986C32.4899 0.885986 24.6596 3.12079 17.9994 7.30779C11.3392 11.4948 6.14824 17.4459 3.0829 24.4087C0.0175479 31.3714 -0.784487 39.033 0.778214 46.4246C2.34091 53.8162 6.19817 60.6058 11.8622 65.9348C17.5262 71.2638 24.7426 74.893 32.5989 76.3632C40.4551 77.8335 48.5983 77.0789 55.9987 74.1949C63.3991 71.3108 69.7243 66.4268 74.1745 60.1605C78.6247 53.8943 81 46.5271 81 38.9907C81 28.8847 76.733 19.1926 69.1378 12.0466C61.5426 4.90058 51.2413 0.885986 40.5 0.885986ZM66.9516 26.2018L33.6909 57.4715L14.0485 38.9907C13.3771 38.3591 13 37.5024 13 36.6092C13 35.7159 13.3771 34.8592 14.0485 34.2276C14.7198 33.596 15.6303 33.2411 16.5797 33.2411C17.5291 33.2411 18.4396 33.596 19.111 34.2276L33.7416 47.9929L61.9397 21.4863C62.611 20.8547 63.5215 20.4999 64.4709 20.4999C65.4203 20.4999 66.3309 20.8547 67.0022 21.4863C67.6735 22.118 68.0507 22.9746 68.0507 23.8679C68.0507 24.7611 67.6735 25.6178 67.0022 26.2494L66.9516 26.2018Z" fill="#0F720D"/>
</svg>
