<svg width="48" height="48" viewBox="0 0 48 48" fill="none" xmlns="http://www.w3.org/2000/svg">
<g id="comment_duotone_line">
<path id="Union" d="M9.65396 14.2761L10.545 14.73L9.65396 14.2761ZM10.5364 37.4636L11.2435 38.1707H11.2435L10.5364 37.4636ZM35.7239 32.346L35.27 31.455L35.7239 32.346ZM38.346 29.7239L37.455 29.27L38.346 29.7239ZM38.346 14.2761L37.455 14.73V14.73L38.346 14.2761ZM35.7239 11.654L36.1779 10.763V10.763L35.7239 11.654ZM12.2761 11.654L12.73 12.545L12.2761 11.654ZM14.4142 33.5858L15.1213 34.2929L14.4142 33.5858ZM10 20.6C10 18.9033 10.0008 17.691 10.0784 16.7406C10.1551 15.802 10.3018 15.2073 10.545 14.73L8.76295 13.8221C8.35217 14.6283 8.17186 15.5154 8.08507 16.5778C7.99922 17.6285 8 18.9363 8 20.6H10ZM10 23V20.6H8V23H10ZM8 23V33H10V23H8ZM8 33V36.8272H10V33H8ZM8 36.8272C8 38.5199 10.0466 39.3676 11.2435 38.1707L9.82929 36.7565C9.83509 36.7507 9.85624 36.736 9.88645 36.7308C9.91121 36.7265 9.92841 36.7307 9.93827 36.7348C9.94813 36.7389 9.96329 36.7481 9.97776 36.7686C9.99542 36.7937 10 36.819 10 36.8272H8ZM11.2435 38.1707L15.1213 34.2929L13.7071 32.8787L9.82929 36.7565L11.2435 38.1707ZM29.4 32H15.8284V34H29.4V32ZM35.27 31.455C34.7927 31.6982 34.198 31.8449 33.2594 31.9216C32.309 31.9992 31.0967 32 29.4 32V34C31.0637 34 32.3715 34.0008 33.4222 33.9149C34.4846 33.8281 35.3717 33.6478 36.1779 33.237L35.27 31.455ZM37.455 29.27C36.9757 30.2108 36.2108 30.9757 35.27 31.455L36.1779 33.237C37.4951 32.5659 38.5659 31.4951 39.237 30.1779L37.455 29.27ZM38 23.4C38 25.0967 37.9992 26.309 37.9216 27.2594C37.8449 28.198 37.6982 28.7927 37.455 29.27L39.237 30.1779C39.6478 29.3717 39.8281 28.4846 39.9149 27.4222C40.0008 26.3715 40 25.0637 40 23.4H38ZM38 20.6V23.4H40V20.6H38ZM37.455 14.73C37.6982 15.2073 37.8449 15.802 37.9216 16.7406C37.9992 17.691 38 18.9033 38 20.6H40C40 18.9363 40.0008 17.6285 39.9149 16.5778C39.8281 15.5154 39.6478 14.6283 39.237 13.8221L37.455 14.73ZM35.27 12.545C36.2108 13.0243 36.9757 13.7892 37.455 14.73L39.237 13.8221C38.5659 12.5049 37.4951 11.4341 36.1779 10.763L35.27 12.545ZM29.4 12C31.0967 12 32.309 12.0008 33.2594 12.0784C34.198 12.1551 34.7927 12.3018 35.27 12.545L36.1779 10.763C35.3717 10.3522 34.4846 10.1719 33.4222 10.0851C32.3715 9.99922 31.0637 10 29.4 10V12ZM18.6 12H29.4V10H18.6V12ZM12.73 12.545C13.2073 12.3018 13.802 12.1551 14.7406 12.0784C15.691 12.0008 16.9033 12 18.6 12V10C16.9363 10 15.6285 9.99922 14.5778 10.0851C13.5154 10.1719 12.6283 10.3522 11.8221 10.763L12.73 12.545ZM10.545 14.73C11.0243 13.7892 11.7892 13.0243 12.73 12.545L11.8221 10.763C10.5049 11.4341 9.43407 12.5049 8.76295 13.8221L10.545 14.73ZM15.1213 34.2929C15.3089 34.1054 15.5632 34 15.8284 34V32C15.0328 32 14.2697 32.3161 13.7071 32.8787L15.1213 34.2929Z" fill="white"/>
<path id="Vector" d="M17 19L31 19M17 25H27" stroke="white" stroke-width="2" stroke-linecap="round" stroke-linejoin="round"/>
</g>
</svg>
