<svg width="32" height="32" viewBox="0 0 32 32" fill="none" xmlns="http://www.w3.org/2000/svg">
<g id="Compass_fill">
<path id="Subtract" fill-rule="evenodd" clip-rule="evenodd" d="M16 29.3333C23.3638 29.3333 29.3333 23.3638 29.3333 16C29.3333 8.63619 23.3638 2.66666 16 2.66666C8.63619 2.66666 2.66666 8.63619 2.66666 16C2.66666 23.3638 8.63619 29.3333 16 29.3333ZM19.4642 13.9998C18.7333 12.7339 15.0511 10.6697 13.146 9.66228C12.603 9.37515 11.9615 9.74552 11.9387 10.3593C11.8587 12.5129 11.8051 16.7339 12.536 17.9998C13.2669 19.2657 16.9491 21.3298 18.8542 22.3373C19.3972 22.6244 20.0387 22.2541 20.0615 21.6403C20.1415 19.4867 20.1951 15.2657 19.4642 13.9998Z" fill="#FFFFFF"/>
</g>
</svg>
