<svg width="17" height="17" viewBox="0 0 17 17" fill="none" xmlns="http://www.w3.org/2000/svg">
<g id="Date_range_fill">
<path id="Rectangle 26" d="M1.41666 6.37501C1.41666 5.59932 1.41666 5.21147 1.5228 4.89879C1.72266 4.31001 2.185 3.84768 2.77378 3.64781C3.08646 3.54167 3.4743 3.54167 4.24999 3.54167H12.75C13.5257 3.54167 13.9135 3.54167 14.2262 3.64781C14.815 3.84768 15.2773 4.31001 15.4772 4.89879C15.5833 5.21147 15.5833 5.59932 15.5833 6.37501C15.5833 6.56893 15.5833 6.66589 15.5568 6.74406C15.5068 6.89125 15.3912 7.00684 15.244 7.0568C15.1659 7.08334 15.0689 7.08334 14.875 7.08334H2.12499C1.93107 7.08334 1.83411 7.08334 1.75594 7.0568C1.60874 7.00684 1.49316 6.89125 1.44319 6.74406C1.41666 6.66589 1.41666 6.56893 1.41666 6.37501Z" fill="#343434"/>
<path id="Subtract" fill-rule="evenodd" clip-rule="evenodd" d="M1.41666 11.5833C1.41666 13.469 1.41666 14.4118 2.00244 14.9975C2.58823 15.5833 3.53104 15.5833 5.41666 15.5833H11.5833C13.4689 15.5833 14.4117 15.5833 14.9975 14.9975C15.5833 14.4118 15.5833 13.469 15.5833 11.5833V9.5C15.5833 9.0286 15.5833 8.79289 15.4369 8.64645C15.2904 8.5 15.0547 8.5 14.5833 8.5H2.41666C1.94525 8.5 1.70955 8.5 1.5631 8.64645C1.41666 8.79289 1.41666 9.0286 1.41666 9.5V11.5833ZM4.95832 10.625C4.95832 10.4311 4.95832 10.3341 4.98486 10.2559C5.03482 10.1088 5.15041 9.99317 5.2976 9.9432C5.37577 9.91667 5.47273 9.91667 5.66666 9.91667H7.08332C7.27725 9.91667 7.37421 9.91667 7.45238 9.9432C7.59957 9.99317 7.71516 10.1088 7.76512 10.2559C7.79166 10.3341 7.79166 10.4311 7.79166 10.625C7.79166 10.8189 7.79166 10.9159 7.76512 10.9941C7.71516 11.1412 7.59957 11.2568 7.45238 11.3068C7.37421 11.3333 7.27725 11.3333 7.08332 11.3333H5.66666C5.47273 11.3333 5.37577 11.3333 5.2976 11.3068C5.15041 11.2568 5.03482 11.1412 4.98486 10.9941C4.95832 10.9159 4.95832 10.8189 4.95832 10.625ZM4.98486 13.0893C4.95832 13.1674 4.95832 13.2644 4.95832 13.4583C4.95832 13.6523 4.95832 13.7492 4.98486 13.8274C5.03482 13.9746 5.15041 14.0902 5.2976 14.1401C5.37577 14.1667 5.47273 14.1667 5.66666 14.1667H7.08332C7.27725 14.1667 7.37421 14.1667 7.45238 14.1401C7.59957 14.0902 7.71516 13.9746 7.76512 13.8274C7.79166 13.7492 7.79166 13.6523 7.79166 13.4583C7.79166 13.2644 7.79166 13.1674 7.76512 13.0893C7.71516 12.9421 7.59957 12.8265 7.45238 12.7765C7.37421 12.75 7.27725 12.75 7.08332 12.75H5.66666C5.47273 12.75 5.37577 12.75 5.2976 12.7765C5.15041 12.8265 5.03482 12.9421 4.98486 13.0893ZM9.20832 10.625C9.20832 10.4311 9.20832 10.3341 9.23486 10.2559C9.28482 10.1088 9.40041 9.99317 9.5476 9.9432C9.62577 9.91667 9.72273 9.91667 9.91666 9.91667H11.3333C11.5272 9.91667 11.6242 9.91667 11.7024 9.9432C11.8496 9.99317 11.9652 10.1088 12.0151 10.2559C12.0417 10.3341 12.0417 10.4311 12.0417 10.625C12.0417 10.8189 12.0417 10.9159 12.0151 10.9941C11.9652 11.1412 11.8496 11.2568 11.7024 11.3068C11.6242 11.3333 11.5272 11.3333 11.3333 11.3333H9.91666C9.72273 11.3333 9.62577 11.3333 9.5476 11.3068C9.40041 11.2568 9.28482 11.1412 9.23486 10.9941C9.20832 10.9159 9.20832 10.8189 9.20832 10.625ZM9.23486 13.0893C9.20832 13.1674 9.20832 13.2644 9.20832 13.4583C9.20832 13.6523 9.20832 13.7492 9.23486 13.8274C9.28482 13.9746 9.40041 14.0902 9.5476 14.1401C9.62577 14.1667 9.72273 14.1667 9.91666 14.1667H11.3333C11.5272 14.1667 11.6242 14.1667 11.7024 14.1401C11.8496 14.0902 11.9652 13.9746 12.0151 13.8274C12.0417 13.7492 12.0417 13.6523 12.0417 13.4583C12.0417 13.2644 12.0417 13.1674 12.0151 13.0893C11.9652 12.9421 11.8496 12.8265 11.7024 12.7765C11.6242 12.75 11.5272 12.75 11.3333 12.75H9.91666C9.72273 12.75 9.62577 12.75 9.5476 12.7765C9.40041 12.8265 9.28482 12.9421 9.23486 13.0893Z" fill="#343434"/>
<path id="Line 1" d="M4.95834 2.125L4.95834 4.25" stroke="#343434" stroke-width="2" stroke-linecap="round"/>
<path id="Line 2" d="M12.0417 2.125L12.0417 4.25" stroke="#343434" stroke-width="2" stroke-linecap="round"/>
</g>
</svg>
