<svg width="87" height="87" viewBox="0 0 87 87" fill="none" xmlns="http://www.w3.org/2000/svg">
<path fill-rule="evenodd" clip-rule="evenodd" d="M86.625 43.5C86.625 67.3173 67.3173 86.625 43.5 86.625C19.6827 86.625 0.375 67.3173 0.375 43.5C0.375 19.6827 19.6827 0.375 43.5 0.375C67.3173 0.375 86.625 19.6827 86.625 43.5ZM21.8585 65.1415C20.4916 63.7747 20.4916 61.5586 21.8585 60.1918L38.5503 43.5L21.8585 26.8082C20.4916 25.4414 20.4916 23.2253 21.8585 21.8585C23.2253 20.4916 25.4414 20.4916 26.8082 21.8585L43.5 38.5503L60.1918 21.8585C61.5586 20.4916 63.7747 20.4916 65.1415 21.8585C66.5084 23.2253 66.5084 25.4414 65.1415 26.8082L48.4497 43.5L65.1415 60.1918C66.5084 61.5586 66.5084 63.7747 65.1415 65.1415C63.7747 66.5084 61.5586 66.5084 60.1918 65.1415L43.5 48.4497L26.8082 65.1415C25.4414 66.5084 23.2253 66.5084 21.8585 65.1415Z" fill="#D70D0D"/>
</svg>
