<svg width="40" height="40" viewBox="0 0 40 40" fill="none" xmlns="http://www.w3.org/2000/svg">
<g id="linkedin" clip-path="url(#clip0_2639_2986)">
<g id="Group">
<path id="Vector" d="M20 39.9998C31.0457 39.9998 40 31.0455 40 19.9998C40 8.95406 31.0457 -0.000244141 20 -0.000244141C8.95428 -0.000244141 -3.05176e-05 8.95406 -3.05176e-05 19.9998C-3.05176e-05 31.0455 8.95428 39.9998 20 39.9998Z" fill="#007AB9"/>
<g id="Group_2">
<path id="Vector_2" d="M31.9498 21.6091V29.8547H27.1692V22.1617C27.1692 20.2301 26.479 18.911 24.7481 18.911C23.4272 18.911 22.6425 19.7991 22.2959 20.659C22.1701 20.9663 22.1376 21.393 22.1376 21.8241V29.8543H17.3567C17.3567 29.8543 17.4209 16.825 17.3567 15.4763H22.138V17.5138C22.1284 17.5298 22.1148 17.5455 22.1063 17.5608H22.138V17.5138C22.7733 16.5362 23.9063 15.1386 26.4465 15.1386C29.5917 15.1386 31.9498 17.1936 31.9498 21.6091ZM12.3555 8.54553C10.7201 8.54553 9.65021 9.61901 9.65021 11.0294C9.65021 12.4098 10.6891 13.5143 12.2927 13.5143H12.3237C13.9912 13.5143 15.0279 12.4098 15.0279 11.0294C14.9962 9.61901 13.9912 8.54553 12.3555 8.54553ZM9.93435 29.8547H14.7135V15.4763H9.93435V29.8547Z" fill="#F1F2F2"/>
</g>
</g>
</g>
<defs>
<clipPath id="clip0_2639_2986">
<rect width="40" height="40" fill="white"/>
</clipPath>
</defs>
</svg>
