<svg width="16" height="16" viewBox="0 0 16 16" fill="none" xmlns="http://www.w3.org/2000/svg">
<g id="Pin_fill">
<path id="Subtract" fill-rule="evenodd" clip-rule="evenodd" d="M8.39785 13.1325C9.52635 12.5237 12.6667 10.5413 12.6667 7.33334C12.6667 4.75601 10.5773 2.66667 8.00001 2.66667C5.42268 2.66667 3.33334 4.75601 3.33334 7.33334C3.33334 10.5413 6.47367 12.5237 7.60217 13.1325C7.85287 13.2678 8.14715 13.2678 8.39785 13.1325ZM8.00001 9.33334C9.10458 9.33334 10 8.43791 10 7.33334C10 6.22877 9.10458 5.33334 8.00001 5.33334C6.89544 5.33334 6.00001 6.22877 6.00001 7.33334C6.00001 8.43791 6.89544 9.33334 8.00001 9.33334Z" fill="#FFFFFF"/>
</g>
</svg>
